<svg width="325" height="290" viewBox="0 0 325 290" fill="none" xmlns="http://www.w3.org/2000/svg">
	<g filter="url(#filter0_i_1_7)">
		<rect x="0.5" y="0.5" width="324" height="289" rx="15" fill="#0D0D0D"/>
	</g>
	<path d="M151.913 79.27C149.793 81.37 147.213 82.42 144.173 82.42C141.133 82.42 138.553 81.37 136.433 79.27C134.333 77.15 133.283 74.56 133.283 71.5C133.283 68.44 134.333 65.86 136.433 63.76C138.553 61.64 141.133 60.58 144.173 60.58C147.213 60.58 149.793 61.64 151.913 63.76C154.033 65.86 155.093 68.44 155.093 71.5C155.093 74.56 154.033 77.15 151.913 79.27ZM139.343 76.45C140.643 77.73 142.253 78.37 144.173 78.37C146.093 78.37 147.703 77.73 149.003 76.45C150.303 75.15 150.953 73.5 150.953 71.5C150.953 69.5 150.303 67.85 149.003 66.55C147.703 65.25 146.093 64.6 144.173 64.6C142.253 64.6 140.643 65.25 139.343 66.55C138.043 67.85 137.393 69.5 137.393 71.5C137.393 73.5 138.043 75.15 139.343 76.45ZM165.686 82.42C163.346 82.42 161.426 81.76 159.926 80.44C158.426 79.12 157.676 77.35 157.676 75.13V61H161.786V74.8C161.786 75.9 162.096 76.77 162.716 77.41C163.356 78.05 164.346 78.37 165.686 78.37C167.026 78.37 168.006 78.05 168.626 77.41C169.266 76.77 169.586 75.9 169.586 74.8V61H173.726V75.13C173.726 77.35 172.976 79.12 171.476 80.44C169.976 81.76 168.046 82.42 165.686 82.42ZM191.346 61V64.96H185.676V82H181.536V64.96H175.896V61H191.346ZM105.978 118.42C103.898 118.42 102.148 117.96 100.728 117.04C99.3084 116.1 98.3084 114.83 97.7284 113.23L101.268 111.16C102.088 113.3 103.698 114.37 106.098 114.37C107.258 114.37 108.108 114.16 108.648 113.74C109.188 113.32 109.458 112.79 109.458 112.15C109.458 111.41 109.128 110.84 108.468 110.44C107.808 110.02 106.628 109.57 104.928 109.09C103.988 108.81 103.188 108.53 102.528 108.25C101.888 107.97 101.238 107.6 100.578 107.14C99.9384 106.66 99.4484 106.06 99.1084 105.34C98.7684 104.62 98.5984 103.78 98.5984 102.82C98.5984 100.92 99.2684 99.41 100.608 98.29C101.968 97.15 103.598 96.58 105.498 96.58C107.198 96.58 108.688 97 109.968 97.84C111.268 98.66 112.278 99.81 112.998 101.29L109.518 103.3C108.678 101.5 107.338 100.6 105.498 100.6C104.638 100.6 103.958 100.8 103.458 101.2C102.978 101.58 102.738 102.08 102.738 102.7C102.738 103.36 103.008 103.9 103.548 104.32C104.108 104.72 105.168 105.16 106.728 105.64C107.368 105.84 107.848 106 108.168 106.12C108.508 106.22 108.958 106.39 109.518 106.63C110.098 106.85 110.538 107.06 110.838 107.26C111.158 107.46 111.518 107.73 111.918 108.07C112.318 108.41 112.618 108.76 112.818 109.12C113.038 109.48 113.218 109.92 113.358 110.44C113.518 110.94 113.598 111.49 113.598 112.09C113.598 114.03 112.888 115.57 111.468 116.71C110.068 117.85 108.238 118.42 105.978 118.42ZM124.129 118.42C121.789 118.42 119.869 117.76 118.369 116.44C116.869 115.12 116.119 113.35 116.119 111.13V97H120.229V110.8C120.229 111.9 120.539 112.77 121.159 113.41C121.799 114.05 122.789 114.37 124.129 114.37C125.469 114.37 126.449 114.05 127.069 113.41C127.709 112.77 128.029 111.9 128.029 110.8V97H132.169V111.13C132.169 113.35 131.419 115.12 129.919 116.44C128.419 117.76 126.489 118.42 124.129 118.42ZM143.728 97C145.748 97 147.448 97.68 148.828 99.04C150.208 100.4 150.898 102.07 150.898 104.05C150.898 106.03 150.208 107.7 148.828 109.06C147.448 110.42 145.748 111.1 143.728 111.1H140.038V118H135.898V97H143.728ZM143.728 107.23C144.608 107.23 145.338 106.93 145.918 106.33C146.498 105.71 146.788 104.95 146.788 104.05C146.788 103.13 146.498 102.37 145.918 101.77C145.338 101.17 144.608 100.87 143.728 100.87H140.038V107.23H143.728ZM161.424 97C163.444 97 165.144 97.68 166.524 99.04C167.904 100.4 168.594 102.07 168.594 104.05C168.594 106.03 167.904 107.7 166.524 109.06C165.144 110.42 163.444 111.1 161.424 111.1H157.734V118H153.594V97H161.424ZM161.424 107.23C162.304 107.23 163.034 106.93 163.614 106.33C164.194 105.71 164.484 104.95 164.484 104.05C164.484 103.13 164.194 102.37 163.614 101.77C163.034 101.17 162.304 100.87 161.424 100.87H157.734V107.23H161.424ZM188.812 115.27C186.692 117.37 184.112 118.42 181.072 118.42C178.032 118.42 175.452 117.37 173.332 115.27C171.232 113.15 170.182 110.56 170.182 107.5C170.182 104.44 171.232 101.86 173.332 99.76C175.452 97.64 178.032 96.58 181.072 96.58C184.112 96.58 186.692 97.64 188.812 99.76C190.932 101.86 191.992 104.44 191.992 107.5C191.992 110.56 190.932 113.15 188.812 115.27ZM176.242 112.45C177.542 113.73 179.152 114.37 181.072 114.37C182.992 114.37 184.602 113.73 185.902 112.45C187.202 111.15 187.852 109.5 187.852 107.5C187.852 105.5 187.202 103.85 185.902 102.55C184.602 101.25 182.992 100.6 181.072 100.6C179.152 100.6 177.542 101.25 176.242 102.55C174.942 103.85 174.292 105.5 174.292 107.5C174.292 109.5 174.942 111.15 176.242 112.45ZM206.422 118L202.192 110.71H199.042V118H194.902V97H203.302C205.242 97 206.892 97.68 208.252 99.04C209.612 100.4 210.292 102.04 210.292 103.96C210.292 105.26 209.922 106.47 209.182 107.59C208.442 108.69 207.462 109.52 206.242 110.08L210.892 118H206.422ZM199.042 100.87V107.08H203.302C204.082 107.08 204.752 106.78 205.312 106.18C205.872 105.56 206.152 104.82 206.152 103.96C206.152 103.1 205.872 102.37 205.312 101.77C204.752 101.17 204.082 100.87 203.302 100.87H199.042ZM226.78 97V100.96H221.11V118H216.97V100.96H211.33V97H226.78Z" fill="white"/>
	<g filter="url(#filter1_d_1_7)">
		<path d="M80.4543 214V205.889L99.2755 186.516C103.476 182.106 105.576 178.431 105.576 175.491C105.576 173.339 104.893 171.606 103.528 170.294C102.216 168.981 100.509 168.325 98.4093 168.325C94.2618 168.325 91.1905 170.477 89.1955 174.782L80.0605 169.427C81.793 165.647 84.2868 162.76 87.5418 160.765C90.7968 158.77 94.3668 157.772 98.2518 157.772C103.239 157.772 107.518 159.347 111.088 162.497C114.658 165.595 116.443 169.795 116.443 175.097C116.443 180.82 113.424 186.7 107.387 192.737L96.598 203.526H117.309V214H80.4543ZM163.737 194.549V204.629H157.83V214H146.884V204.629H120.818V194.549L139.167 158.875H150.822L132.552 194.549H146.884V181.476H157.83V194.549H163.737ZM171.933 221.875H167.444L198.944 151H203.433L171.933 221.875ZM207.09 158.875H242.685V168.089L224.021 214H212.524L230.636 169.27H207.09V158.875Z" fill="#FF2750"/>
	</g>
	<defs>
		<filter id="filter0_i_1_7" x="0.5" y="0.5" width="324" height="289" filterUnits="userSpaceOnUse" color-interpolation-filters="sRGB">
			<feFlood flood-opacity="0" result="BackgroundImageFix"/>
			<feBlend mode="normal" in="SourceGraphic" in2="BackgroundImageFix" result="shape"/>
			<feColorMatrix in="SourceAlpha" type="matrix" values="0 0 0 0 0 0 0 0 0 0 0 0 0 0 0 0 0 0 127 0" result="hardAlpha"/>
			<feOffset/>
			<feGaussianBlur stdDeviation="11.5"/>
			<feComposite in2="hardAlpha" operator="arithmetic" k2="-1" k3="1"/>
			<feColorMatrix type="matrix" values="0 0 0 0 0 0 0 0 0 0 0 0 0 0 0 0 0 0 0.25 0"/>
			<feBlend mode="normal" in2="shape" result="effect1_innerShadow_1_7"/>
		</filter>
		<filter id="filter1_d_1_7" x="21.0605" y="92" width="280.624" height="188.875" filterUnits="userSpaceOnUse" color-interpolation-filters="sRGB">
			<feFlood flood-opacity="0" result="BackgroundImageFix"/>
			<feColorMatrix in="SourceAlpha" type="matrix" values="0 0 0 0 0 0 0 0 0 0 0 0 0 0 0 0 0 0 127 0" result="hardAlpha"/>
			<feOffset/>
			<feGaussianBlur stdDeviation="29.5"/>
			<feComposite in2="hardAlpha" operator="out"/>
			<feColorMatrix type="matrix" values="0 0 0 0 1 0 0 0 0 0.152941 0 0 0 0 0.313726 0 0 0 1 0"/>
			<feBlend mode="normal" in2="BackgroundImageFix" result="effect1_dropShadow_1_7"/>
			<feBlend mode="normal" in="SourceGraphic" in2="effect1_dropShadow_1_7" result="shape"/>
		</filter>
	</defs>
</svg>
