<svg xmlns="http://www.w3.org/2000/svg" width="91" height="15" viewBox="0 0 91 15" fill="none">
	<path d="M7.5 0L9.94666 4.13247L14.6329 5.18237L11.4588 8.78628L11.9084 13.5676L7.5 11.6625L3.09161 13.5676L3.54123 8.78628L0.367076 5.18237L5.05334 4.13247L7.5 0Z" fill="#FF2750"/>
	<path d="M26.5 0L28.9467 4.13247L33.6329 5.18237L30.4588 8.78628L30.9084 13.5676L26.5 11.6625L22.0916 13.5676L22.5412 8.78628L19.3671 5.18237L24.0533 4.13247L26.5 0Z" fill="#FF2750"/>
	<path d="M45.5 0L47.9467 4.13247L52.6329 5.18237L49.4588 8.78628L49.9084 13.5676L45.5 11.6625L41.0916 13.5676L41.5412 8.78628L38.3671 5.18237L43.0533 4.13247L45.5 0Z" fill="#FF2750"/>
	<path d="M64.5 0L66.9467 4.13247L71.6329 5.18237L68.4588 8.78628L68.9084 13.5676L64.5 11.6625L60.0916 13.5676L60.5412 8.78628L57.3671 5.18237L62.0533 4.13247L64.5 0Z" fill="#FF2750"/>
	<path d="M83.5 0L85.9467 4.13247L90.6329 5.18237L87.4588 8.78628L87.9084 13.5676L83.5 11.6625L79.0916 13.5676L79.5412 8.78628L76.3671 5.18237L81.0533 4.13247L83.5 0Z" fill="#FF2750"/>
</svg>
